:SAMPLES-PER-SECOND 30
:FULLY-SPECIFIED
:DEGREES
148
root  0.202819 36.6933 -1.50851 4.14127 -69.46 -7.22623
RightUpLeg  20.4911 3.31911 11.8771
RightLeg  22.9885 -1.6976 -0.993392
RightFoot  -18.496 -0.171282 -0.557897
RightToes  7.56698e-010 0 -3.6325e-017
Spine  9.34393 3.6864 4.61232
Spine1  14.785 8.28845 -11.1463
HEad  -24.8603 -25.2452 19.6345
LeftShoulder1  3.02239 -6.76347 -23.1846
LeftArm  -17.7271 21.3756 -44.4016
LeftForeArm  121.904 -68.5049 -149.916
LeftHand  -0.454835 1.10589 12.3709
RightShoulder  1.92117 3.66972 20.4498
RightArm  -37.0151 -22.1311 37.8645
RightForeArm  133.482 62.0529 158.203
RightHand  -0.918278 2.31661 -13.9971
LeftUpLeg  -27.1461 -14.339 -5.42425
LeftLeg  49.1493 3.10646 4.26926
LeftFoot  -8.45866 -0.0957861 4.79524
LeftToes  -3.13779e-010 -2.47553e-011 -5.36621e-011
149
root  0.640564 37.6954 -1.1695 1.64093 -72.6692 -4.68979
RightUpLeg  16.3872 3.69227 8.91259
RightLeg  28.005 -1.57435 -1.10191
RightFoot  -10.5836 -0.0656124 0.319217
RightToes  7.56698e-010 0 -3.6325e-017
Spine  10.916 3.04013 5.83857
Spine1  13.6973 8.17574 -13.3589
HEad  -22.9781 -22.8792 17.0992
LeftShoulder1  3.27289 -7.79587 -22.6933
LeftArm  -17.3178 15.5165 -45.2931
LeftForeArm  108.824 -73.9609 -134.813
LeftHand  -0.594117 0.627192 14.3787
RightShoulder  1.88683 3.67073 19.9289
RightArm  -33.8275 -20.6182 43.3562
RightForeArm  127.185 69.1756 148.024
RightHand  -1.00507 2.66529 -14.6307
LeftUpLeg  -24.2868 -9.23494 -6.4764
LeftLeg  42.0404 1.39806 1.86905
LeftFoot  -2.14355 -0.391449 5.31251
LeftToes  -3.13779e-010 -2.47553e-011 -5.36621e-011
150
root  1.41119 39.1531 -0.670215 -4.2881 -76.698 1.66844
RightUpLeg  8.30847 4.1008 4.34204
RightLeg  35.8758 -0.893898 -0.987147
RightFoot  5.44388 0.26944 -1.24409
RightToes  7.56698e-010 0 -3.6325e-017
Spine  14.3369 1.45919 6.25648
Spine1  9.94265 6.58138 -15.5136
HEad  -18.896 -17.5676 11.8939
LeftShoulder1  3.30301 -8.44507 -21.2758
LeftArm  -17.0308 10.0939 -47.7191
LeftForeArm  51.1015 -78.0562 -70.9325
LeftHand  -0.98217 -0.698863 18.7271
RightShoulder  1.78883 3.82836 17.8835
RightArm  -29.3671 -14.625 51.3458
RightForeArm  74.0615 78.5765 87.8626
RightHand  -1.38503 4.51172 -16.3779
LeftUpLeg  -19.4137 -3.75717 -7.63363
LeftLeg  28.8311 -2.74557 -1.23404
LeftFoot  5.99736 0.239847 -1.43174
LeftToes  -3.13779e-010 -2.47553e-011 -5.36621e-011
151
root  2.13693 40.2509 -0.119671 -11.387 -78.6609 9.3725
RightUpLeg  -1.79711 3.52448 0.984626
RightLeg  44.4908 -3.10946 -3.65137
RightFoot  22.4455 1.10913 -3.2618
RightToes  7.56698e-010 0 -3.6325e-017
Spine  17.4513 -1.00063 4.47217
Spine1  6.12057 2.65256 -13.5131
HEad  -15.6444 -9.58714 5.12819
LeftShoulder1  3.26179 -8.75747 -20.1675
LeftArm  -16.094 5.09593 -50.2451
LeftForeArm  12.2419 -65.2667 -24.0705
LeftHand  -1.40599 -1.4893 23.699
RightShoulder  1.69546 4.18807 15.2912
RightArm  -26.4948 -5.73329 57.0327
RightForeArm  13.41 63.6572 21.6149
RightHand  -2.04051 7.48728 -18.5609
LeftUpLeg  -15.0303 -0.194458 -8.00606
LeftLeg  18.2493 -6.80069 -2.29378
LeftFoot  10.4 2.62749 -14.2489
LeftToes  -3.13779e-010 -2.47553e-011 -5.36621e-011
152
root  2.57977 41.0422 0.468762 -18.5644 -79.3495 17.0594
RightUpLeg  -10.8959 2.70414 -1.4333
RightLeg  50.3424 -7.09945 -9.38656
RightFoot  29.6506 1.1088 -2.39072
RightToes  7.56698e-010 0 -3.6325e-017
Spine  18.7698 -3.05225 1.17283
Spine1  4.23181 -1.4923 -8.32945
HEad  -14.6418 -1.47586 -1.66289
LeftShoulder1  3.43602 -9.51953 -19.9296
LeftArm  -12.2472 -0.885683 -51.336
LeftForeArm  7.27708 -48.979 -12.0964
LeftHand  -1.70397 -1.63037 27.9472
RightShoulder  1.63504 4.29567 14.1034
RightArm  -25.0068 4.03289 58.5621
RightForeArm  2.88226 42.8921 9.7681
RightHand  -2.57149 9.48346 -20.2303
LeftUpLeg  -12.2246 -0.0197061 -7.66459
LeftLeg  17.6916 -7.23652 -2.3899
LeftFoot  8.1102 3.87064 -22.6286
LeftToes  -3.13779e-010 -2.47553e-011 -5.36621e-011
